<svg width="266" height="544" viewBox="0 0 266 544" fill="none" xmlns="http://www.w3.org/2000/svg">
<rect y="488" width="266" height="56" rx="8" fill="#6FD91C"/>
<g clip-path="url(#clip0_1_2)">
<path d="M77.25 505.5C77.0511 505.5 76.8603 505.579 76.7197 505.72C76.579 505.86 76.5 506.051 76.5 506.25C76.5 506.449 76.579 506.64 76.7197 506.78C76.8603 506.921 77.0511 507 77.25 507H78.915L79.5165 509.411L81.7635 521.388C81.7957 521.56 81.8869 521.715 82.0214 521.827C82.1558 521.939 82.3251 522 82.5 522H84C83.2044 522 82.4413 522.316 81.8787 522.879C81.3161 523.441 81 524.204 81 525C81 525.796 81.3161 526.559 81.8787 527.121C82.4413 527.684 83.2044 528 84 528C84.7957 528 85.5587 527.684 86.1213 527.121C86.6839 526.559 87 525.796 87 525C87 524.204 86.6839 523.441 86.1213 522.879C85.5587 522.316 84.7957 522 84 522H94.5C93.7044 522 92.9413 522.316 92.3787 522.879C91.8161 523.441 91.5 524.204 91.5 525C91.5 525.796 91.8161 526.559 92.3787 527.121C92.9413 527.684 93.7044 528 94.5 528C95.2957 528 96.0587 527.684 96.6213 527.121C97.1839 526.559 97.5 525.796 97.5 525C97.5 524.204 97.1839 523.441 96.6213 522.879C96.0587 522.316 95.2957 522 94.5 522H96C96.1749 522 96.3442 521.939 96.4786 521.827C96.6131 521.715 96.7043 521.56 96.7365 521.388L98.9865 509.388C99.0068 509.28 99.0029 509.168 98.9753 509.062C98.9477 508.955 98.8969 508.856 98.8266 508.771C98.7563 508.686 98.6682 508.618 98.5685 508.571C98.4689 508.524 98.3601 508.5 98.25 508.5H80.835L80.2275 506.068C80.187 505.906 80.0934 505.762 79.9616 505.659C79.8298 505.556 79.6673 505.5 79.5 505.5H77.25ZM85.5 525C85.5 525.398 85.342 525.779 85.0607 526.061C84.7794 526.342 84.3978 526.5 84 526.5C83.6022 526.5 83.2206 526.342 82.9393 526.061C82.658 525.779 82.5 525.398 82.5 525C82.5 524.602 82.658 524.221 82.9393 523.939C83.2206 523.658 83.6022 523.5 84 523.5C84.3978 523.5 84.7794 523.658 85.0607 523.939C85.342 524.221 85.5 524.602 85.5 525ZM96 525C96 525.398 95.842 525.779 95.5607 526.061C95.2794 526.342 94.8978 526.5 94.5 526.5C94.1022 526.5 93.7206 526.342 93.4393 526.061C93.158 525.779 93 525.398 93 525C93 524.602 93.158 524.221 93.4393 523.939C93.7206 523.658 94.1022 523.5 94.5 523.5C94.8978 523.5 95.2794 523.658 95.5607 523.939C95.842 524.221 96 524.602 96 525ZM93.531 513.531L89.031 518.031C88.9613 518.101 88.8786 518.156 88.7875 518.194C88.6963 518.232 88.5987 518.251 88.5 518.251C88.4014 518.251 88.3037 518.232 88.2126 518.194C88.1214 518.156 88.0387 518.101 87.969 518.031L85.719 515.781C85.6493 515.711 85.594 515.628 85.5562 515.537C85.5185 515.446 85.4991 515.349 85.4991 515.25C85.4991 515.151 85.5185 515.054 85.5562 514.963C85.594 514.872 85.6493 514.789 85.719 514.719C85.7887 514.649 85.8715 514.594 85.9626 514.556C86.0537 514.518 86.1514 514.499 86.25 514.499C86.3486 514.499 86.4463 514.518 86.5374 514.556C86.6285 514.594 86.7113 514.649 86.781 514.719L88.5 516.44L92.469 512.469C92.5387 512.399 92.6215 512.344 92.7126 512.306C92.8037 512.268 92.9014 512.249 93 512.249C93.0986 512.249 93.1963 512.268 93.2874 512.306C93.3785 512.344 93.4613 512.399 93.531 512.469C93.6007 512.539 93.656 512.622 93.6938 512.713C93.7315 512.804 93.7509 512.901 93.7509 513C93.7509 513.099 93.7315 513.196 93.6938 513.287C93.656 513.378 93.6007 513.461 93.531 513.531Z" fill="white"/>
</g>
<path d="M113.334 514.634C114.257 514.634 114.758 515.064 114.758 515.829C114.758 516.646 114.222 517.06 113.149 517.06H111.392V514.634H113.334ZM113.272 518.387C114.521 518.387 115.136 518.844 115.136 519.758C115.136 520.646 114.556 521.12 113.483 521.12H111.392V518.387H113.272ZM109.52 522.5H113.773C115.777 522.5 117.025 521.463 117.025 519.837C117.025 518.677 116.234 517.833 115.039 517.675V517.604C115.927 517.438 116.612 516.567 116.612 515.609C116.612 514.15 115.522 513.254 113.721 513.254H109.52V522.5ZM126.122 517.596L130.218 513.254H127.95L124.329 517.209H124.259V513.254H122.369V522.5H124.259V518.237H124.329L127.994 522.5H130.376L126.122 517.596ZM135.315 522.676C137.961 522.676 139.701 520.856 139.701 517.877C139.701 514.906 137.952 513.087 135.315 513.087C132.679 513.087 130.93 514.906 130.93 517.877C130.93 520.856 132.67 522.676 135.315 522.676ZM135.315 521.111C133.83 521.111 132.863 519.934 132.863 517.877C132.863 515.829 133.83 514.651 135.315 514.651C136.801 514.651 137.768 515.829 137.768 517.877C137.768 519.934 136.81 521.111 135.315 521.111ZM146.161 513.104C144.825 513.104 143.762 513.781 143.217 514.845H143.182V513.254H141.345V525.559H143.243V520.979H143.287C143.814 522.008 144.869 522.658 146.196 522.658C148.517 522.658 150.055 520.804 150.055 517.877C150.055 514.95 148.508 513.104 146.161 513.104ZM145.66 521.05C144.201 521.05 143.234 519.802 143.234 517.877C143.234 515.97 144.21 514.704 145.66 514.704C147.163 514.704 148.104 515.943 148.104 517.877C148.104 519.819 147.163 521.05 145.66 521.05ZM155.012 522.676C157.306 522.676 158.791 521.516 158.791 519.758C158.791 518.703 158.167 517.938 156.989 517.666V517.596C157.886 517.367 158.466 516.567 158.466 515.627C158.466 514.089 157.253 513.087 155.012 513.087C152.946 513.087 151.566 514.115 151.373 515.759H153.192C153.315 515.038 154.001 514.599 155.021 514.599C156.102 514.599 156.611 515.1 156.611 515.812C156.611 516.62 156.058 517.024 154.994 517.024H153.667V518.422H155.021C156.277 518.422 156.901 518.844 156.901 519.767C156.901 520.584 156.225 521.146 155.012 521.146C153.948 521.146 153.245 520.707 153.052 519.907H151.18C151.347 521.612 152.85 522.676 155.012 522.676ZM162.333 522.5L166.604 516.005H166.675V522.5H168.547V513.254H166.675L162.403 519.731H162.333V513.254H160.461V522.5H162.333ZM176.659 522.5H178.549V513.254H176.659V516.98H172.476V513.254H170.586V522.5H172.476V518.475H176.659V522.5ZM184.481 514.616C185.809 514.616 186.705 515.609 186.749 517.024H182.126C182.223 515.627 183.154 514.616 184.481 514.616ZM186.74 519.784C186.485 520.593 185.686 521.138 184.604 521.138C183.084 521.138 182.117 520.074 182.117 518.466V518.352H188.647V517.701C188.647 514.897 187.048 513.087 184.481 513.087C181.871 513.087 180.201 515.021 180.201 517.921C180.201 520.839 181.845 522.676 184.561 522.676C186.679 522.676 188.278 521.472 188.542 519.784H186.74Z" fill="white"/>
<path d="M29.947 9.17901C29.8842 8.99388 29.7685 8.83121 29.6142 8.71107C29.46 8.59094 29.2739 8.51861 29.079 8.50301L23.378 8.05001L20.911 2.58901C20.8325 2.41313 20.7047 2.26374 20.5431 2.15887C20.3815 2.05401 20.193 1.99815 20.0004 1.99805C19.8077 1.99794 19.6192 2.05359 19.4575 2.15828C19.2957 2.26296 19.1678 2.41221 19.089 2.58801L16.622 8.05001L10.921 8.50301C10.7295 8.51819 10.5464 8.58822 10.3936 8.70475C10.2408 8.82127 10.1248 8.97934 10.0595 9.16004C9.99422 9.34075 9.98236 9.53645 10.0254 9.72372C10.0684 9.91099 10.1644 10.0819 10.302 10.216L14.515 14.323L13.025 20.775C12.9798 20.9703 12.9943 21.1747 13.0666 21.3617C13.139 21.5486 13.2659 21.7095 13.4308 21.8235C13.5958 21.9374 13.7911 21.9991 13.9916 22.0007C14.1921 22.0022 14.3884 21.9434 14.555 21.832L20 18.202L25.445 21.832C25.6154 21.9451 25.8162 22.0033 26.0207 21.9988C26.2251 21.9944 26.4232 21.9274 26.5884 21.8069C26.7536 21.6865 26.878 21.5183 26.9448 21.3251C27.0116 21.1318 27.0176 20.9228 26.962 20.726L25.133 14.326L29.669 10.244C29.966 9.97601 30.075 9.55801 29.947 9.17901Z" fill="#FFAD31"/>
<path d="M77.947 9.17901C77.8842 8.99388 77.7685 8.83121 77.6142 8.71107C77.46 8.59094 77.2739 8.51861 77.079 8.50301L71.378 8.05001L68.911 2.58901C68.8325 2.41313 68.7047 2.26374 68.5431 2.15887C68.3815 2.05401 68.193 1.99815 68.0004 1.99805C67.8077 1.99794 67.6192 2.05359 67.4575 2.15828C67.2957 2.26296 67.1678 2.41221 67.089 2.58801L64.622 8.05001L58.921 8.50301C58.7295 8.51819 58.5464 8.58822 58.3936 8.70475C58.2408 8.82127 58.1248 8.97934 58.0595 9.16004C57.9942 9.34075 57.9824 9.53645 58.0254 9.72372C58.0684 9.91099 58.1644 10.0819 58.302 10.216L62.515 14.323L61.025 20.775C60.9798 20.9703 60.9943 21.1747 61.0666 21.3617C61.139 21.5486 61.2659 21.7095 61.4308 21.8235C61.5958 21.9374 61.7911 21.9991 61.9916 22.0007C62.1921 22.0022 62.3884 21.9434 62.555 21.832L68 18.202L73.445 21.832C73.6154 21.9451 73.8162 22.0033 74.0207 21.9988C74.2251 21.9944 74.4232 21.9274 74.5884 21.8069C74.7536 21.6865 74.878 21.5183 74.9448 21.3251C75.0116 21.1318 75.0176 20.9228 74.962 20.726L73.133 14.326L77.669 10.244C77.966 9.97601 78.075 9.55801 77.947 9.17901Z" fill="#FFAD31"/>
<path d="M53.947 9.17901C53.8842 8.99388 53.7685 8.83121 53.6142 8.71107C53.46 8.59094 53.2739 8.51861 53.079 8.50301L47.378 8.05001L44.911 2.58901C44.8325 2.41313 44.7047 2.26374 44.5431 2.15887C44.3815 2.05401 44.193 1.99815 44.0004 1.99805C43.8077 1.99794 43.6192 2.05359 43.4575 2.15828C43.2957 2.26296 43.1678 2.41221 43.089 2.58801L40.622 8.05001L34.921 8.50301C34.7295 8.51819 34.5464 8.58822 34.3936 8.70475C34.2408 8.82127 34.1248 8.97934 34.0595 9.16004C33.9942 9.34075 33.9824 9.53645 34.0254 9.72372C34.0684 9.91099 34.1644 10.0819 34.302 10.216L38.515 14.323L37.025 20.775C36.9798 20.9703 36.9943 21.1747 37.0666 21.3617C37.139 21.5486 37.2659 21.7095 37.4308 21.8235C37.5958 21.9374 37.7911 21.9991 37.9916 22.0007C38.1921 22.0022 38.3884 21.9434 38.555 21.832L44 18.202L49.445 21.832C49.6154 21.9451 49.8162 22.0033 50.0207 21.9988C50.2251 21.9944 50.4232 21.9274 50.5884 21.8069C50.7536 21.6865 50.878 21.5183 50.9448 21.3251C51.0116 21.1318 51.0176 20.9228 50.962 20.726L49.133 14.326L53.669 10.244C53.966 9.97601 54.075 9.55801 53.947 9.17901Z" fill="#FFAD31"/>
<path d="M101.947 9.17901C101.884 8.99388 101.768 8.83121 101.614 8.71107C101.46 8.59094 101.274 8.51861 101.079 8.50301L95.378 8.05001L92.911 2.58901C92.8325 2.41313 92.7047 2.26374 92.5431 2.15887C92.3815 2.05401 92.193 1.99815 92.0004 1.99805C91.8077 1.99794 91.6192 2.05359 91.4575 2.15828C91.2957 2.26296 91.1678 2.41221 91.089 2.58801L88.622 8.05001L82.921 8.50301C82.7295 8.51819 82.5464 8.58822 82.3936 8.70475C82.2408 8.82127 82.1248 8.97934 82.0595 9.16004C81.9942 9.34075 81.9824 9.53645 82.0254 9.72372C82.0684 9.91099 82.1644 10.0819 82.302 10.216L86.515 14.323L85.025 20.775C84.9798 20.9703 84.9943 21.1747 85.0666 21.3617C85.139 21.5486 85.2659 21.7095 85.4308 21.8235C85.5958 21.9374 85.7911 21.9991 85.9916 22.0007C86.1921 22.0022 86.3884 21.9434 86.555 21.832L92 18.202L97.445 21.832C97.6154 21.9451 97.8162 22.0033 98.0207 21.9988C98.2251 21.9944 98.4232 21.9274 98.5884 21.8069C98.7536 21.6865 98.878 21.5183 98.9448 21.3251C99.0116 21.1318 99.0176 20.9228 98.962 20.726L97.133 14.326L101.669 10.244C101.966 9.97601 102.075 9.55801 101.947 9.17901Z" fill="#FFAD31"/>
<path d="M125.947 9.17901C125.884 8.99388 125.768 8.83121 125.614 8.71107C125.46 8.59094 125.274 8.51861 125.079 8.50301L119.378 8.05001L116.911 2.58901C116.832 2.41313 116.705 2.26374 116.543 2.15887C116.381 2.05401 116.193 1.99815 116 1.99805C115.808 1.99794 115.619 2.05359 115.457 2.15828C115.296 2.26296 115.168 2.41221 115.089 2.58801L112.622 8.05001L106.921 8.50301C106.729 8.51819 106.546 8.58822 106.394 8.70475C106.241 8.82127 106.125 8.97934 106.06 9.16004C105.994 9.34075 105.982 9.53645 106.025 9.72372C106.068 9.91099 106.164 10.0819 106.302 10.216L110.515 14.323L109.025 20.775C108.98 20.9703 108.994 21.1747 109.067 21.3617C109.139 21.5486 109.266 21.7095 109.431 21.8235C109.596 21.9374 109.791 21.9991 109.992 22.0007C110.192 22.0022 110.388 21.9434 110.555 21.832L116 18.202L121.445 21.832C121.615 21.9451 121.816 22.0033 122.021 21.9988C122.225 21.9944 122.423 21.9274 122.588 21.8069C122.754 21.6865 122.878 21.5183 122.945 21.3251C123.012 21.1318 123.018 20.9228 122.962 20.726L121.133 14.326L125.669 10.244C125.966 9.97601 126.075 9.55801 125.947 9.17901Z" fill="#DBDBDB"/>
<defs>
<clipPath id="clip0_1_2">
<rect width="24" height="24" fill="white" transform="translate(76.5 504)"/>
</clipPath>
</defs>
</svg>
